<svg width="27" height="28" viewBox="0 0 27 28" fill="none" xmlns="http://www.w3.org/2000/svg">
<path d="M13.5 1C6.59644 1 1 6.59644 1 13.5V23.2351C1 25.64 3.84844 26.9086 5.63601 25.2999L6.53725 24.4887C7.38618 23.7247 8.61622 23.5581 9.63775 24.0689L12.2578 25.3789C13.0397 25.7699 13.9603 25.7699 14.7422 25.3789L17.3622 24.0689C18.3838 23.5581 19.6139 23.7247 20.4628 24.4887L21.364 25.2999C23.1515 26.9086 26 25.64 26 23.2351V13.5C26 6.59644 20.4036 1 13.5 1Z" stroke="white" stroke-width="2"/>
<path d="M7.94449 16.2781C9.21145 17.9648 11.2285 19.0559 13.5006 19.0559C15.7725 19.0559 17.7896 17.9648 19.0566 16.2781" stroke="white" stroke-width="2.5" stroke-linecap="round"/>
<path d="M9.33334 10.7379V10.7223" stroke="white" stroke-width="5.33333" stroke-linecap="round"/>
<path d="M17.6667 10.7379V10.7223" stroke="white" stroke-width="5.33333" stroke-linecap="round"/>
</svg>
