<svg width="32" height="32" viewBox="0 0 32 32" fill="none" xmlns="http://www.w3.org/2000/svg">
<path d="M30.2376 22.756C29.8172 22.756 29.4762 23.0311 29.4762 23.3703V24.5887C29.4762 24.9633 29.2955 25.3153 28.9679 25.5796C28.639 25.8445 28.2025 25.9904 27.7387 25.9904C26.5796 25.9904 25.6365 25.2296 25.6365 24.2945V21.6901C25.6365 20.7752 25.1947 19.9145 24.3921 19.2662C23.7721 18.7661 22.994 18.4405 22.149 18.3178V17.1938H23.3398C23.7603 17.1938 24.1013 16.9188 24.1013 16.5796C24.1013 16.2403 23.7603 15.9653 23.3398 15.9653H22.149V5.96177C22.149 4.63625 21.5094 3.39018 20.3478 2.45307C19.1863 1.51602 17.6421 1 15.9995 1C12.6086 1 9.8499 3.22584 9.8499 5.96177V15.9653H8.65897C8.23847 15.9653 7.89756 16.2404 7.89756 16.5796C7.89756 16.9189 8.23847 17.1939 8.65897 17.1939H9.8499V18.3186C7.86931 18.609 6.36238 20.0098 6.36238 21.6902V24.2945C6.36238 24.7476 6.1437 25.1735 5.74672 25.4937C5.34975 25.8141 4.82182 25.9904 4.26035 25.9904C3.30226 25.9904 2.52283 25.3616 2.52283 24.5887V23.3703C2.52283 23.0311 2.18192 22.756 1.76142 22.756C1.34091 22.756 1 23.0311 1 23.3703V24.5887C1 26.039 2.46255 27.2189 4.26028 27.2189C5.22853 27.2189 6.13883 26.9147 6.82348 26.3624C7.50813 25.8101 7.88514 25.0757 7.88514 24.2945V21.6901C7.88514 20.6905 8.71599 19.8446 9.84983 19.5781V27.8646C9.84983 28.2038 10.1907 28.4789 10.6112 28.4789C11.0318 28.4789 11.3727 28.2038 11.3727 27.8646V18.8766V16.5796V5.96177C11.3727 3.90321 13.4483 2.22849 15.9994 2.22849C17.2351 2.22849 17.4789 3.29492 18.3529 3.99989C19.2268 4.70498 20.6262 4.96442 20.6262 5.96177V16.5796V18.8766V27.8646C20.6262 28.2039 20.9672 28.4789 21.3876 28.4789C21.8081 28.4789 22.1491 28.2039 22.1491 27.8646V19.5773C22.5854 19.6791 22.9851 19.8686 23.315 20.1348C23.8301 20.5508 24.1137 21.1032 24.1137 21.6902V24.2946C24.1137 25.9072 25.7398 27.219 27.7386 27.219C28.6087 27.219 29.4273 26.9456 30.0441 26.4488C30.6598 25.9522 30.9989 25.2916 30.9989 24.5887V23.3704C30.999 23.0311 30.6581 22.756 30.2376 22.756Z" fill="white" stroke="white" stroke-width="0.125"/>
<path d="M14.2035 18.2634C13.783 18.2634 13.4421 18.5384 13.4421 18.8777V30.3857C13.4421 30.725 13.783 31 14.2035 31C14.624 31 14.9649 30.725 14.9649 30.3857V18.8777C14.9648 18.5384 14.624 18.2634 14.2035 18.2634Z" fill="white" stroke="white" stroke-width="0.125"/>
<path d="M17.7956 25.9688C17.3751 25.9688 17.0342 26.2438 17.0342 26.5831V30.3844C17.0342 30.7237 17.3751 30.9987 17.7956 30.9987C18.216 30.9987 18.557 30.7237 18.557 30.3844V26.5831C18.557 26.2438 18.2162 25.9688 17.7956 25.9688Z" fill="white" stroke="white" stroke-width="0.125"/>
<path d="M17.7956 23.8273C17.3751 23.8273 17.0342 24.1023 17.0342 24.4416V24.8511C17.0342 25.1904 17.3751 25.4654 17.7956 25.4654C18.216 25.4654 18.557 25.1904 18.557 24.8511V24.4416C18.557 24.1023 18.2162 23.8273 17.7956 23.8273Z" fill="white" stroke="white" stroke-width="0.125"/>
<path d="M17.7956 18.2634C17.3751 18.2634 17.0342 18.5384 17.0342 18.8777V22.7099C17.0342 23.0492 17.3751 23.3242 17.7956 23.3242C18.216 23.3242 18.557 23.0492 18.557 22.7099V18.8777C18.557 18.5384 18.2162 18.2634 17.7956 18.2634Z" fill="white" stroke="white" stroke-width="0.125"/>
<path d="M13.7349 11.3145C13.3144 11.3145 12.9735 11.5895 12.9735 11.9287V12.9367C12.9735 13.276 13.3144 13.551 13.7349 13.551C14.1554 13.551 14.4963 13.276 14.4963 12.9367V11.9287C14.4963 11.5894 14.1554 11.3145 13.7349 11.3145Z" fill="white" stroke="white" stroke-width="0.125"/>
<path d="M17.7956 11.3145C17.3751 11.3145 17.0342 11.5895 17.0342 11.9287V12.9367C17.0342 13.276 17.3751 13.551 17.7956 13.551C18.216 13.551 18.557 13.276 18.557 12.9367V11.9287C18.557 11.5894 18.2162 11.3145 17.7956 11.3145Z" fill="white" stroke="white" stroke-width="0.125"/>
</svg>
